<?xml version="1.0" encoding="utf-8"?>
<!-- Generator: Adobe Illustrator 24.0.0, SVG Export Plug-In . SVG Version: 6.00 Build 0)  -->
<svg version="1.1" id="Layer_1" xmlns="http://www.w3.org/2000/svg" xmlns:xlink="http://www.w3.org/1999/xlink" x="0px" y="0px"
	 viewBox="0 0 41.55 15.13" style="enable-background:new 0 0 41.55 15.13;" xml:space="preserve">
<g>
	<path style="opacity:0.5;fill:#662D91;" d="M10.24,12.8l-5.77,1.62c-1.08,0.3-2.19-0.39-2.47-1.55l-1.93-7.9
		c-0.28-1.16,0.36-2.35,1.45-2.65l5.77-1.62C8.36,0.4,9.47,1.1,9.75,2.25l1.93,7.9C11.96,11.31,11.32,12.5,10.24,12.8z"/>
	<path style="fill:#662D91;" d="M8.61,13.49H3.3c-1.2,0-2.17-0.97-2.17-2.17V3.83c0-1.2,0.97-2.17,2.17-2.17h5.32
		c1.2,0,2.17,0.97,2.17,2.17v7.49C10.79,12.52,9.81,13.49,8.61,13.49z"/>
	<path style="fill:#FFFFFF;stroke:#FFFFFF;stroke-width:0.0532;stroke-miterlimit:10;" d="M2.55,5.08l1.86,6.83
		c0,0,0.15,0.68,0.9,0.56l2.81-0.85c0,0,2.73-1.21,1.58-3.81c0,0-0.53-1.16-1.48-1.33c0,0,0.8-1.07-0.4-2.65
		c0,0-0.83-0.99-2.01-0.62L2.95,4.07C2.95,4.07,2.35,4.41,2.55,5.08z"/>
	<path style="fill:none;stroke:#FFFFFF;stroke-width:0.0495;stroke-miterlimit:10;" d="M9.36,7.81c0,0-0.48-1.1-1.35-1.26
		c0,0,0.73-1.02-0.37-2.52c0,0-0.75-0.94-1.83-0.59l-2.6,0.81c0,0-0.55,0.32-0.37,0.97l1.69,6.49c0,0,0.14,0.64,0.82,0.54l2.56-0.81
		C7.93,11.43,10.41,10.28,9.36,7.81"/>
	<path style="fill:#93278F;" d="M3.51,7.71l3.61,0.02c0,0-0.03-2.93-2.15-4.03L3.2,4.24c0,0-0.46,0.37-0.38,0.81
		C2.9,5.48,3.51,7.71,3.51,7.71z"/>
	<path style="fill:#29ABE2;" d="M3.5,7.68h3.61v3.89l-1.81,0.62c0,0-0.7,0.06-0.75-0.56C4.51,11.01,3.5,7.68,3.5,7.68z"/>
	<path style="fill:#FBB03B;" d="M4.98,3.7c0,0,2.15,1.07,2.11,4.21c0,0,0.12-2.34,1.09-2.99C8.18,4.92,7.54,2.4,4.98,3.7z"/>
	<path style="fill:#FF1D25;stroke:#F23838;stroke-width:0.0519;stroke-miterlimit:10;" d="M8.14,4.85c0,0-2.37,2.73,0.19,6.21
		c0,0,1.71-1.13,1.01-3.08c0,0-0.47-1.32-1.33-1.46C8.01,6.53,8.55,5.7,8.14,4.85z"/>
	<path style="fill:#39B54A;" d="M7.12,11.57l0-3.56c0,0,0.2,1.73,1.3,3.02c0,0-0.44,0.34-0.65,0.35C7.71,11.4,7.15,11.59,7.12,11.57
		z"/>
</g>
<g>
	<path style="fill:#6F3FA8;" d="M14.1,9.87h-0.62V7.38l-1.62-3.99h0.72l1.33,3.45l1.24-3.45h0.45L14.1,7.38V9.87z"/>
	<path style="fill:#6F3FA8;" d="M16.87,9.87c0,0.48-0.09,0.88-0.26,1.18c-0.17,0.31-0.43,0.56-0.76,0.76l-0.13-0.3
		c0.1-0.1,0.19-0.21,0.26-0.34c0.07-0.13,0.12-0.27,0.16-0.42c0.04-0.15,0.06-0.31,0.08-0.48c0.01-0.17,0.02-0.34,0.02-0.52V3.39
		h0.64V9.87z"/>
	<path style="fill:#6F3FA8;" d="M21.59,8.5c-0.08,0.29-0.21,0.54-0.37,0.75c-0.17,0.22-0.37,0.39-0.61,0.51s-0.53,0.19-0.85,0.19
		c-0.27,0-0.5-0.04-0.72-0.12c-0.21-0.08-0.4-0.21-0.55-0.39s-0.27-0.42-0.35-0.71s-0.12-0.65-0.12-1.07V3.39h0.62V7.8
		c0,0.33,0.03,0.59,0.08,0.8s0.13,0.38,0.22,0.5s0.22,0.21,0.36,0.26c0.15,0.05,0.31,0.08,0.5,0.08c0.23,0,0.44-0.03,0.62-0.1
		c0.18-0.07,0.32-0.17,0.42-0.3c0.08-0.12,0.15-0.29,0.19-0.51c0.04-0.22,0.06-0.47,0.06-0.76V3.39h0.62v4.2
		C21.71,7.91,21.67,8.22,21.59,8.5z"/>
	<path style="fill:#6F3FA8;" d="M25.46,7.99c0,0.25-0.04,0.48-0.11,0.72s-0.17,0.44-0.31,0.63c-0.14,0.19-0.31,0.34-0.5,0.45
		c-0.2,0.11-0.43,0.17-0.68,0.17c-0.27,0-0.51-0.04-0.72-0.13c-0.21-0.08-0.41-0.2-0.59-0.34l0.23-0.76
		c0.07,0.06,0.15,0.13,0.25,0.2c0.1,0.07,0.2,0.13,0.31,0.19c0.11,0.06,0.22,0.11,0.34,0.15c0.12,0.04,0.23,0.06,0.33,0.06
		c0.15,0,0.28-0.02,0.38-0.06s0.19-0.08,0.26-0.14c0.04-0.03,0.07-0.07,0.11-0.11c0.03-0.04,0.06-0.1,0.09-0.17
		c0.03-0.07,0.05-0.16,0.06-0.27c0.02-0.11,0.02-0.24,0.02-0.39c0-0.2-0.03-0.37-0.09-0.5c-0.06-0.14-0.15-0.25-0.25-0.35
		c-0.1-0.1-0.22-0.18-0.36-0.26c-0.13-0.07-0.27-0.15-0.4-0.23s-0.27-0.17-0.4-0.26c-0.13-0.09-0.25-0.21-0.36-0.35
		c-0.1-0.14-0.19-0.31-0.25-0.51c-0.06-0.2-0.1-0.44-0.1-0.73c0-0.2,0.03-0.4,0.1-0.6s0.17-0.38,0.29-0.54s0.29-0.29,0.47-0.4
		c0.19-0.1,0.4-0.16,0.64-0.16c0.19,0,0.37,0.01,0.54,0.04c0.17,0.03,0.33,0.07,0.5,0.11L25.1,4.24c-0.18-0.08-0.36-0.16-0.55-0.22
		c-0.19-0.06-0.37-0.09-0.54-0.09c-0.13,0-0.24,0.01-0.34,0.04c-0.1,0.03-0.17,0.06-0.23,0.11c-0.06,0.06-0.1,0.14-0.14,0.26
		c-0.04,0.11-0.06,0.28-0.06,0.51c0,0.18,0.03,0.33,0.09,0.46c0.06,0.12,0.15,0.23,0.25,0.33c0.1,0.09,0.22,0.18,0.36,0.25
		c0.13,0.07,0.27,0.15,0.41,0.23s0.27,0.17,0.41,0.27c0.13,0.1,0.25,0.22,0.36,0.36c0.1,0.14,0.19,0.32,0.25,0.52
		C25.43,7.46,25.46,7.71,25.46,7.99z"/>
	<path style="fill:#6F3FA8;" d="M31.35,8.5c-0.08,0.29-0.21,0.54-0.37,0.75c-0.17,0.22-0.37,0.39-0.61,0.51s-0.53,0.19-0.85,0.19
		c-0.27,0-0.5-0.04-0.72-0.12c-0.21-0.08-0.4-0.21-0.55-0.39s-0.27-0.42-0.35-0.71s-0.12-0.65-0.12-1.07V3.39h0.62V7.8
		c0,0.33,0.03,0.59,0.08,0.8s0.13,0.38,0.22,0.5s0.22,0.21,0.36,0.26c0.15,0.05,0.31,0.08,0.5,0.08c0.23,0,0.44-0.03,0.62-0.1
		c0.18-0.07,0.32-0.17,0.42-0.3c0.08-0.12,0.15-0.29,0.19-0.51c0.04-0.22,0.06-0.47,0.06-0.76V3.39h0.62v4.2
		C31.48,7.91,31.44,8.22,31.35,8.5z"/>
	<path style="fill:#6F3FA8;" d="M37.34,9.87l-0.39-4.94l-1.67,4.94h-0.3l-1.81-4.94l-0.32,4.94h-0.42l0.49-6.52h0.39l1.93,5.32
		l1.81-5.32h0.39l0.53,6.52H37.34z"/>
	<path style="fill:#6F3FA8;" d="M41.55,7.99c0,0.25-0.04,0.48-0.11,0.72s-0.17,0.44-0.31,0.63c-0.14,0.19-0.31,0.34-0.5,0.45
		c-0.2,0.11-0.43,0.17-0.68,0.17c-0.27,0-0.51-0.04-0.72-0.13c-0.21-0.08-0.41-0.2-0.59-0.34l0.23-0.76
		c0.07,0.06,0.15,0.13,0.25,0.2c0.1,0.07,0.2,0.13,0.31,0.19c0.11,0.06,0.22,0.11,0.34,0.15c0.12,0.04,0.23,0.06,0.33,0.06
		c0.15,0,0.28-0.02,0.38-0.06s0.19-0.08,0.26-0.14c0.04-0.03,0.07-0.07,0.11-0.11c0.03-0.04,0.06-0.1,0.09-0.17
		c0.03-0.07,0.05-0.16,0.06-0.27C41,8.48,41.01,8.35,41.01,8.2c0-0.2-0.03-0.37-0.09-0.5c-0.06-0.14-0.15-0.25-0.25-0.35
		c-0.1-0.1-0.22-0.18-0.36-0.26c-0.13-0.07-0.27-0.15-0.4-0.23s-0.27-0.17-0.4-0.26c-0.13-0.09-0.25-0.21-0.36-0.35
		c-0.1-0.14-0.19-0.31-0.25-0.51c-0.06-0.2-0.1-0.44-0.1-0.73c0-0.2,0.03-0.4,0.1-0.6s0.17-0.38,0.29-0.54s0.29-0.29,0.47-0.4
		c0.19-0.1,0.4-0.16,0.64-0.16c0.19,0,0.37,0.01,0.54,0.04c0.17,0.03,0.33,0.07,0.5,0.11l-0.14,0.77c-0.18-0.08-0.36-0.16-0.55-0.22
		c-0.19-0.06-0.37-0.09-0.54-0.09c-0.13,0-0.24,0.01-0.34,0.04c-0.1,0.03-0.17,0.06-0.23,0.11c-0.06,0.06-0.1,0.14-0.14,0.26
		c-0.04,0.11-0.06,0.28-0.06,0.51c0,0.18,0.03,0.33,0.09,0.46c0.06,0.12,0.15,0.23,0.25,0.33c0.1,0.09,0.22,0.18,0.36,0.25
		c0.13,0.07,0.27,0.15,0.41,0.23s0.27,0.17,0.41,0.27c0.13,0.1,0.25,0.22,0.36,0.36c0.1,0.14,0.19,0.32,0.25,0.52
		C41.52,7.46,41.55,7.71,41.55,7.99z"/>
</g>
</svg>
