<svg id="Layer_14" data-name="Layer 14" xmlns="http://www.w3.org/2000/svg" xmlns:xlink="http://www.w3.org/1999/xlink" viewBox="0 0 28 32"><defs><style>.cls-1{fill:#fff;}.cls-2{fill:#a154a0;}.cls-2,.cls-3,.cls-4,.cls-5,.cls-6,.cls-7,.cls-8{fill-rule:evenodd;}.cls-3{fill:#5f286e;}.cls-4{fill:#813589;}.cls-5{fill:url(#Green);}.cls-6{fill:url(#Yellow_Green);}.cls-7{fill:url(#Green-2);}.cls-8{fill:url(#Green-3);}</style><linearGradient id="Green" x1="6.79" y1="16.18" x2="18.86" y2="16.18" gradientUnits="userSpaceOnUse"><stop offset="0" stop-color="#64c08a"/><stop offset="0.5" stop-color="#00a550"/><stop offset="1" stop-color="#00914c"/></linearGradient><linearGradient id="Yellow_Green" x1="9.32" y1="15.46" x2="14.87" y2="15.46" gradientUnits="userSpaceOnUse"><stop offset="0" stop-color="#d1e4a5"/><stop offset="0.5" stop-color="#acd479"/><stop offset="1" stop-color="#76b83f"/></linearGradient><linearGradient id="Green-2" x1="5.7" y1="14.65" x2="13.28" y2="14.65" xlink:href="#Green"/><linearGradient id="Green-3" x1="12.09" y1="20.49" x2="17.23" y2="20.49" xlink:href="#Green"/></defs><path class="cls-1" d="M7.85,3.28h8.66a6.24,6.24,0,0,1,6.24,6.24V21.27a6.24,6.24,0,0,1-6.24,6.24H10.13A6.24,6.24,0,0,1,3.9,21.27v-14a4,4,0,0,1,4-4Z"/><path class="cls-2" d="M23.35,12.15A11.46,11.46,0,0,1,27,20.5v.07A11.4,11.4,0,0,1,15.63,32H10.29A9.56,9.56,0,0,1,.8,22.42V4.75A4.73,4.73,0,0,1,5.5,0h8.28a9.87,9.87,0,0,1,9.81,9.91V10a9.91,9.91,0,0,1-.24,2.18ZM6.91,4.22C4.5,4.22,4.82,5.06,4.82,7V21.23c0,3.21.76,5.5,6.25,5.57l4.43.1c4,0,6.94-4.3,7-8.07v-.06a6.64,6.64,0,0,0-3.25-5.84,3.26,3.26,0,0,0,.78-2.12v-.05c.35-5.63-4-6.54-6.49-6.54Z"/><path class="cls-3" d="M23.35,12.15A11.64,11.64,0,0,1,27.2,20.5v.07A11.45,11.45,0,0,1,15.77,32H10.38A9.61,9.61,0,0,1,.8,22.42V19.65l4,.2v1.33c0,3.05,1.23,5.72,6.32,5.62l4,.1s5.58,0,8.23-4.71S23.35,12.15,23.35,12.15Z"/><path class="cls-4" d="M21.53,30.44A11.39,11.39,0,0,1,15.77,32H10.38A9.61,9.61,0,0,1,.8,22.42V4.75A4.75,4.75,0,0,1,5.55,0h8.36a10,10,0,0,1,1.45.11c9.77,1.57,5.07,11.31,3.91,12.82A5.17,5.17,0,0,0,20,10.38v-.05a6.36,6.36,0,0,0-2-4.28h0l-.12-.15h0l-.21-.22h0l-.07-.07h0l-.07-.06h0l-.16-.14h0l-.24-.19h0L17,5.1h0a5.07,5.07,0,0,0-1.88-.74h0a5.19,5.19,0,0,0-1.2-.14H7.21c-1.72-.1-2.32.46-2.32,1v15.9a5.77,5.77,0,0,0,.38,2.58h0C7.71,30.9,21.47,30.44,21.53,30.44Z"/><path class="cls-5" d="M14.51,18.25c4.88-3.75,3.86-7,.41-7.25a3.47,3.47,0,0,1,3.45.91c1.31,1.71-.11,5-3.18,7.35s-6.61,2.88-7.92,1.18a3.46,3.46,0,0,1,0-3.57c-1.41,3.86,3,4.66,7.22,1.38Z"/><path class="cls-6" d="M14.83,17.54a14.33,14.33,0,0,1,0-6.19h-.14L9.32,13.71a10.26,10.26,0,0,0,2.1,5.87A10.62,10.62,0,0,0,14.29,18c.18-.13.36-.28.54-.43Z"/><path class="cls-7" d="M9,13.56l4.28-2-.15-1.27L7.67,12.93A11.27,11.27,0,0,0,10,19.43c-1.8-2.34-2.72-4.28-2.77-6.69l4.45-2.11-.22-1.25L5.7,11.76a14,14,0,0,0,1.74,4.79l.21.35a13.91,13.91,0,0,0,2.36,3l.23,0a6.69,6.69,0,0,0,1-.23A10.11,10.11,0,0,1,9,13.56Z"/><path class="cls-8" d="M15.41,19.54A12.88,12.88,0,0,1,13,21l.38.25L12.93,21q-.42.18-.84.33c1.66.72,3.45.52,5.14-1.35a2.88,2.88,0,0,1-1.45-.77l-.37.3Z"/></svg>