<svg id="LMS" xmlns="http://www.w3.org/2000/svg" xmlns:xlink="http://www.w3.org/1999/xlink" viewBox="0 0 28 32"><defs><style>.cls-1{fill:#fff;}.cls-2{fill:#a154a0;}.cls-2,.cls-3,.cls-4{fill-rule:evenodd;}.cls-3{fill:#5f286e;}.cls-4{fill:#813589;}.cls-5{fill:url(#Gold);}.cls-6{fill:url(#Gold-2);}.cls-7{fill:url(#Gold-3);}.cls-8{fill:url(#linear-gradient);}.cls-9{fill:url(#linear-gradient-2);}.cls-10{fill:url(#linear-gradient-3);}.cls-11{fill:url(#linear-gradient-4);}.cls-12{fill:#fcfcfd;}.cls-13{fill:url(#Gold-4);}.cls-14{fill:url(#linear-gradient-5);}.cls-15{fill:url(#linear-gradient-6);}.cls-16{fill:url(#linear-gradient-7);}.cls-17{fill:url(#linear-gradient-8);}.cls-18{fill:#f6921e;}</style><linearGradient id="Gold" x1="7.73" y1="17" x2="9.29" y2="17" gradientUnits="userSpaceOnUse"><stop offset="0" stop-color="#ffe7a3"/><stop offset="0.5" stop-color="#ffca05"/><stop offset="1" stop-color="#faac18"/></linearGradient><linearGradient id="Gold-2" x1="11.4" y1="17" x2="12.96" y2="17" xlink:href="#Gold"/><linearGradient id="Gold-3" x1="15.07" y1="17" x2="16.63" y2="17" xlink:href="#Gold"/><linearGradient id="linear-gradient" x1="7.31" y1="14.13" x2="9.7" y2="14.13" gradientUnits="userSpaceOnUse"><stop offset="0" stop-color="#ffe7a3"/><stop offset="0" stop-color="#ffc914"/><stop offset="0" stop-color="#ffb707"/><stop offset="1" stop-color="#f8842c"/></linearGradient><linearGradient id="linear-gradient-2" x1="10.99" y1="14.13" x2="13.38" y2="14.13" xlink:href="#linear-gradient"/><linearGradient id="linear-gradient-3" x1="14.65" y1="14.13" x2="17.05" y2="14.13" xlink:href="#linear-gradient"/><linearGradient id="linear-gradient-4" x1="6.22" y1="11.28" x2="18.11" y2="11.28" xlink:href="#linear-gradient"/><linearGradient id="Gold-4" x1="6.78" y1="20.84" x2="17.56" y2="20.84" xlink:href="#Gold"/><linearGradient id="linear-gradient-5" x1="6.22" y1="21.62" x2="18.11" y2="21.62" xlink:href="#linear-gradient"/><linearGradient id="linear-gradient-6" x1="7.44" y1="20.24" x2="9.83" y2="20.24" xlink:href="#linear-gradient"/><linearGradient id="linear-gradient-7" x1="10.99" y1="20.24" x2="13.38" y2="20.24" xlink:href="#linear-gradient"/><linearGradient id="linear-gradient-8" x1="14.53" y1="20.24" x2="16.92" y2="20.24" xlink:href="#linear-gradient"/></defs><path class="cls-1" d="M7.85,3.28h8.66a6.24,6.24,0,0,1,6.24,6.24V21.27a6.24,6.24,0,0,1-6.24,6.24H10.13A6.24,6.24,0,0,1,3.9,21.27v-14a4,4,0,0,1,4-4Z"/><path class="cls-2" d="M23.35,12.15A11.46,11.46,0,0,1,27,20.5v.07A11.4,11.4,0,0,1,15.63,32H10.29A9.56,9.56,0,0,1,.8,22.42V4.75A4.73,4.73,0,0,1,5.5,0h8.28a9.87,9.87,0,0,1,9.81,9.91V10a9.91,9.91,0,0,1-.24,2.18ZM6.91,4.22C4.5,4.22,4.82,5.06,4.82,7V21.23c0,3.21.76,5.5,6.25,5.57l4.43.1c4,0,6.94-4.3,7-8.07v-.06a6.64,6.64,0,0,0-3.25-5.84,3.26,3.26,0,0,0,.78-2.12v-.05c.35-5.63-4-6.54-6.49-6.54Z"/><path class="cls-3" d="M23.35,12.15A11.64,11.64,0,0,1,27.2,20.5v.07A11.45,11.45,0,0,1,15.77,32H10.38A9.61,9.61,0,0,1,.8,22.42V19.65l4,.2v1.33c0,3.05,1.23,5.72,6.32,5.62l4,.1s5.58,0,8.23-4.71S23.35,12.15,23.35,12.15Z"/><path class="cls-4" d="M21.53,30.44A11.39,11.39,0,0,1,15.77,32H10.38A9.61,9.61,0,0,1,.8,22.42V4.75A4.75,4.75,0,0,1,5.55,0h8.36a10,10,0,0,1,1.45.11c9.77,1.57,5.07,11.31,3.91,12.82A5.17,5.17,0,0,0,20,10.38v-.05a6.36,6.36,0,0,0-2-4.28h0l-.12-.15h0l-.21-.22h0l-.07-.07h0l-.07-.06h0l-.16-.14h0l-.24-.19h0L17,5.1h0a5.07,5.07,0,0,0-1.88-.74h0a5.19,5.19,0,0,0-1.2-.14H7.21c-1.72-.1-2.32.46-2.32,1v15.9a5.77,5.77,0,0,0,.38,2.58h0C7.71,30.9,21.47,30.44,21.53,30.44Z"/><rect class="cls-5" x="7.73" y="13.93" width="1.56" height="6.13"/><rect class="cls-6" x="11.4" y="13.93" width="1.56" height="6.13"/><rect class="cls-7" x="15.07" y="13.93" width="1.56" height="6.13"/><path class="cls-8" d="M7.31,13.72v.37a.44.44,0,0,0,.44.44H9.26a.44.44,0,0,0,.44-.44v-.37Zm0,0"/><path class="cls-9" d="M11,13.72v.37a.44.44,0,0,0,.43.44H13a.44.44,0,0,0,.43-.44v-.37Zm0,0"/><path class="cls-10" d="M14.65,13.72v.37a.44.44,0,0,0,.44.44h1.52a.44.44,0,0,0,.44-.44v-.37Zm0,0"/><path class="cls-11" d="M18.09,13,12.38,8.83a.38.38,0,0,0-.43,0L6.24,13h0v0h0v.83H18.11V13Z"/><path class="cls-12" d="M8,12.72l4.15-2.89,4.16,2.89Zm0,0"/><rect class="cls-13" x="6.78" y="20.43" width="10.78" height="0.82"/><rect class="cls-14" x="6.22" y="21.21" width="11.89" height="0.82"/><rect class="cls-15" x="7.44" y="20.02" width="2.39" height="0.42"/><rect class="cls-16" x="10.99" y="20.02" width="2.4" height="0.42"/><rect class="cls-17" x="14.53" y="20.02" width="2.39" height="0.42"/><path class="cls-18" d="M12.72,11h-.21a.4.4,0,0,0-.08-.16h.29a0,0,0,0,0,0,0v-.12s0,0,0,0h-1a0,0,0,0,0,0,0v.16s0,0,0,0h.18a.34.34,0,0,1,.31.13h-.49l0,0v.12l0,0h.5a.27.27,0,0,1-.11.15.55.55,0,0,1-.24,0h-.13l0,0,0,0v.15l0,0,.56.66h.24s0,0,0,0a0,0,0,0,0,0,0c-.22-.27-.39-.48-.52-.61a.55.55,0,0,0,.31-.13.46.46,0,0,0,.15-.27h.21v-.14a0,0,0,0,0,0,0Zm0,0"/></svg>