<svg id="Layer_9" data-name="Layer 9" xmlns="http://www.w3.org/2000/svg" viewBox="0 0 28 32"><defs><style>.cls-1{fill:#fff;}.cls-2{fill:#a154a0;}.cls-2,.cls-3,.cls-4{fill-rule:evenodd;}.cls-3{fill:#5f286e;}.cls-4{fill:#813589;}.cls-5{fill:#f6921e;}.cls-6{fill:#2e192f;}</style></defs><path class="cls-1" d="M8,3.28h8.66a6.23,6.23,0,0,1,6.23,6.23V21.26a6.23,6.23,0,0,1-6.23,6.23H10.27A6.23,6.23,0,0,1,4,21.26v-14a4,4,0,0,1,4-4Z"/><path class="cls-2" d="M23.49,12.15a11.47,11.47,0,0,1,3.59,8.34v.07A11.39,11.39,0,0,1,15.77,32H10.44A9.55,9.55,0,0,1,1,22.4V4.74A4.72,4.72,0,0,1,5.65,0h8.27a9.88,9.88,0,0,1,9.81,9.9V10a10,10,0,0,1-.24,2.19ZM7.06,4.22C4.64,4.22,5,5.06,5,7V21.22c0,3.21.76,5.49,6.25,5.56l4.43.11c4,0,6.94-4.3,7-8.07v-.06a6.62,6.62,0,0,0-3.25-5.84,3.25,3.25,0,0,0,.79-2.12v-.05c.34-5.62-4-6.53-6.49-6.53Z"/><path class="cls-3" d="M23.49,12.15a11.63,11.63,0,0,1,3.84,8.34v.07A11.44,11.44,0,0,1,15.91,32H10.53A9.59,9.59,0,0,1,1,22.4V19.64l4,.2v1.33c0,3,1.23,5.72,6.31,5.61l4,.11s5.57,0,8.22-4.71S23.49,12.15,23.49,12.15Z"/><path class="cls-4" d="M21.66,30.42A11.33,11.33,0,0,1,15.91,32H10.53A9.61,9.61,0,0,1,1,22.4V4.74A4.74,4.74,0,0,1,5.69,0H14A10,10,0,0,1,15.5.11c9.77,1.57,5.07,11.31,3.9,12.81a5,5,0,0,0,.73-2.54v-.05a6.33,6.33,0,0,0-2-4.28h0A1.83,1.83,0,0,0,18,5.89h0l-.21-.23h0l-.08-.07h0l-.07-.07h0l-.15-.14h0l-.24-.2h0l-.09-.06h0a5,5,0,0,0-1.87-.74h0a5.19,5.19,0,0,0-1.2-.14H7.36C5.64,4.12,5,4.68,5,5.25V21.14a5.63,5.63,0,0,0,.38,2.58h0C7.86,30.89,21.6,30.42,21.66,30.42Z"/><polygon class="cls-5" points="15.41 12.05 6.5 14.33 7.95 18.84 15.18 18.66 15.41 12.05"/><path class="cls-6" d="M8.33,18.28l-2-5.6,10-2.46h0l1.43-.33a.46.46,0,0,1,.56.36.49.49,0,0,1-.35.59l-1.1.26-.12,6.62.94,2.83H9.4a.49.49,0,0,1,0-1h7l-.43-1.28Zm-.8-4.91L9,17.3h6.82l.12-6Zm7.07,8.4a.76.76,0,1,0,.75-.79A.78.78,0,0,0,14.6,21.77Zm-4.36,0a.78.78,0,0,0,.76.8.8.8,0,1,0-.76-.8Z"/></svg>