<svg id="POMS" xmlns="http://www.w3.org/2000/svg" xmlns:xlink="http://www.w3.org/1999/xlink" viewBox="0 0 28 32"><defs><style>.cls-1{fill:#fff;}.cls-2{fill:#a154a0;}.cls-2,.cls-3,.cls-4{fill-rule:evenodd;}.cls-3{fill:#5f286e;}.cls-4{fill:#813589;}.cls-5{fill:url(#Orange_Yellow_2);}.cls-6{fill:url(#Orange_Yellow_2-2);}.cls-7{fill:url(#Orange_Yellow_2-3);}.cls-8{fill:url(#Orange_Yellow_2-4);}</style><linearGradient id="Orange_Yellow_2" x1="5.28" y1="16" x2="17.74" y2="16" gradientTransform="matrix(-1, 0, 0, 1, 23.86, 0)" gradientUnits="userSpaceOnUse"><stop offset="0" stop-color="#fff33b"/><stop offset="0.04" stop-color="#fee72e"/><stop offset="0.12" stop-color="#fed51b"/><stop offset="0.2" stop-color="#fdca10"/><stop offset="0.28" stop-color="#fdc70c"/><stop offset="0.67" stop-color="#f3903f"/><stop offset="0.89" stop-color="#ed683c"/><stop offset="1" stop-color="#e93e3a"/></linearGradient><linearGradient id="Orange_Yellow_2-2" x1="5.16" y1="13.7" x2="6" y2="13.7" xlink:href="#Orange_Yellow_2"/><linearGradient id="Orange_Yellow_2-3" x1="5.35" y1="17.6" x2="6.19" y2="17.6" xlink:href="#Orange_Yellow_2"/><linearGradient id="Orange_Yellow_2-4" x1="7.01" y1="20.57" x2="7.85" y2="20.57" xlink:href="#Orange_Yellow_2"/></defs><path class="cls-1" d="M7.85,3.28h8.66a6.24,6.24,0,0,1,6.24,6.24V21.27a6.24,6.24,0,0,1-6.24,6.24H10.13A6.24,6.24,0,0,1,3.9,21.27v-14a4,4,0,0,1,4-4Z"/><path class="cls-2" d="M23.35,12.15A11.46,11.46,0,0,1,27,20.5v.07A11.4,11.4,0,0,1,15.63,32H10.29A9.56,9.56,0,0,1,.8,22.42V4.75A4.73,4.73,0,0,1,5.5,0h8.28a9.87,9.87,0,0,1,9.81,9.91V10a9.91,9.91,0,0,1-.24,2.18ZM6.91,4.22C4.5,4.22,4.82,5.06,4.82,7V21.23c0,3.21.76,5.5,6.25,5.57l4.43.1c4,0,6.94-4.3,7-8.07v-.06a6.64,6.64,0,0,0-3.25-5.84,3.26,3.26,0,0,0,.78-2.12v-.05c.35-5.63-4-6.54-6.49-6.54Z"/><path class="cls-3" d="M23.35,12.15A11.64,11.64,0,0,1,27.2,20.5v.07A11.45,11.45,0,0,1,15.77,32H10.38A9.61,9.61,0,0,1,.8,22.42V19.65l4,.2v1.33c0,3.05,1.23,5.72,6.32,5.62l4,.1s5.58,0,8.23-4.71S23.35,12.15,23.35,12.15Z"/><path class="cls-4" d="M21.53,30.44A11.39,11.39,0,0,1,15.77,32H10.38A9.61,9.61,0,0,1,.8,22.42V4.75A4.75,4.75,0,0,1,5.55,0h8.36a10,10,0,0,1,1.45.11c9.77,1.57,5.07,11.31,3.91,12.82A5.17,5.17,0,0,0,20,10.38v-.05a6.36,6.36,0,0,0-2-4.28h0l-.12-.15h0l-.21-.22h0l-.07-.07h0l-.07-.06h0l-.16-.14h0l-.24-.19h0L17,5.1h0a5.07,5.07,0,0,0-1.88-.74h0a5.19,5.19,0,0,0-1.2-.14H7.21c-1.72-.1-2.32.46-2.32,1v15.9a5.77,5.77,0,0,0,.38,2.58h0C7.71,30.9,21.47,30.44,21.53,30.44Z"/><path class="cls-5" d="M6.51,11.45l3.92-2.27a.81.81,0,0,1,.77,0l3.92,2.27h0l2.32,1.34a.45.45,0,0,1,.18.6.43.43,0,0,1-.6.14l-1.52-.88v1l2.85,1.63a.44.44,0,0,1,.18.59.45.45,0,0,1-.6.15L15.5,14.63v1l1.6.94a.43.43,0,0,1,.18.59.44.44,0,0,1-.6.15L15.5,16.6v0a.7.7,0,0,1-.1.38.78.78,0,0,1-.28.29l0,0,2.59,1.46a.45.45,0,0,1,.17.6.43.43,0,0,1-.6.14l-3-1.71-.85.5,2,1.14a.43.43,0,1,1-.43.74l-2.42-1.39-.86.49,4.63,2.82a.43.43,0,1,1-.43.74L9.28,18.91h0l-2.77-1.6a.77.77,0,0,1-.39-.67V12.11A.76.76,0,0,1,6.51,11.45Z"/><path class="cls-1" d="M10.81,18.08l.07,0L14,16.28a.14.14,0,0,0,.06-.12V12.59a.13.13,0,0,0-.06-.11.12.12,0,0,0-.14,0l-3.09,1.78a.13.13,0,0,0-.06.12v3.56a.14.14,0,0,0,.06.12Zm2.95-2L11,17.71V14.46l2.81-1.63Z"/><path class="cls-1" d="M10.81,18.08l.07,0L14,16.28a.14.14,0,0,0,.06-.12V12.59a.13.13,0,0,0-.06-.11L10.88,10.7a.12.12,0,0,0-.14,0L7.66,12.48a.14.14,0,0,0-.07.11v3.57a.15.15,0,0,0,.07.12l3.08,1.78Zm2.95-2-2.95,1.7-2.95-1.7V12.67l3-1.7,2.95,1.7Z"/><path class="cls-1" d="M10.81,18.08l.07,0a.15.15,0,0,0,.07-.12V14.38a.14.14,0,0,0-.07-.12L7.79,12.48a.11.11,0,0,0-.13,0,.14.14,0,0,0-.07.11v3.57a.15.15,0,0,0,.07.12l3.08,1.78Zm-.13-3.62v3.25L7.86,16.08V12.83Z"/><path class="cls-1" d="M10.81,14.51a.08.08,0,0,0,.07,0L14,12.71a.13.13,0,0,0,.06-.12.13.13,0,0,0-.06-.11L10.88,10.7a.12.12,0,0,0-.14,0L7.66,12.48a.14.14,0,0,0-.07.11.14.14,0,0,0,.07.12l3.08,1.78A.11.11,0,0,0,10.81,14.51Zm2.82-1.92-2.82,1.63L8,12.59,10.81,11Z"/><path class="cls-1" d="M10.81,14.51a.08.08,0,0,0,.07,0l1.58-.91a.11.11,0,0,0,.06-.11.13.13,0,0,0-.06-.12l-1.58-.91a.17.17,0,0,0-.14,0l-1.57.91a.14.14,0,0,0-.07.12.12.12,0,0,0,.07.11l1.57.91A.11.11,0,0,0,10.81,14.51Zm1.31-1-1.31.75-1.3-.75,1.3-.76Z"/><polygon class="cls-1" points="13.9 12.6 14.51 14.3 11.42 16.09 10.81 14.38 13.9 12.6"/><path class="cls-1" d="M11.42,16.22l.07,0,3.08-1.78a.12.12,0,0,0,.06-.16L14,12.55a.15.15,0,0,0-.08-.08.13.13,0,0,0-.12,0l-3.09,1.78a.14.14,0,0,0-.06.16l.61,1.71a.15.15,0,0,0,.08.08Zm2.92-2-2.85,1.65L11,14.44l2.84-1.65Z"/><polygon class="cls-1" points="7.73 12.6 7.12 14.3 10.2 16.09 10.81 14.38 7.73 12.6"/><path class="cls-1" d="M10.2,16.22h.05a.11.11,0,0,0,.08-.08l.61-1.71a.13.13,0,0,0-.06-.16L7.79,12.48a.11.11,0,0,0-.11,0,.11.11,0,0,0-.08.08L7,14.26a.13.13,0,0,0,.06.16l3.09,1.78Zm.45-1.78-.52,1.45L7.28,14.24l.52-1.45Z"/><path class="cls-6" d="M18.17,14.11a.43.43,0,1,1,.23-.82.42.42,0,0,1,.18.71A.42.42,0,0,1,18.17,14.11Z"/><path class="cls-7" d="M17.88,18a.42.42,0,0,1-.15-.58.43.43,0,0,1,.58-.16.42.42,0,0,1,.15.58A.44.44,0,0,1,17.88,18Z"/><path class="cls-8" d="M16.65,20.2a.42.42,0,1,1-.43.73.42.42,0,0,1,.43-.73Z"/></svg>