<svg id="SOS" xmlns="http://www.w3.org/2000/svg" xmlns:xlink="http://www.w3.org/1999/xlink" viewBox="0 0 28 32"><defs><style>.cls-1{fill:#fff;}.cls-2{fill:#a154a0;}.cls-2,.cls-3,.cls-4{fill-rule:evenodd;}.cls-3{fill:#5f286e;}.cls-4{fill:#813589;}.cls-5{fill:url(#Purple_Radial);}.cls-6{fill:url(#Purple_Radial-2);}.cls-7{fill:url(#Purple_Radial-3);}</style><radialGradient id="Purple_Radial" cx="12.6" cy="20.38" r="2.32" gradientUnits="userSpaceOnUse"><stop offset="0" stop-color="#fff"/><stop offset="0" stop-color="#fdfdfe"/><stop offset="0.15" stop-color="#c9c8e1"/><stop offset="0.29" stop-color="#9b9ac8"/><stop offset="0.44" stop-color="#7674b4"/><stop offset="0.58" stop-color="#5a57a4"/><stop offset="0.73" stop-color="#454399"/><stop offset="0.87" stop-color="#393692"/><stop offset="1" stop-color="#353290"/></radialGradient><radialGradient id="Purple_Radial-2" cx="12.55" cy="14.52" r="1.22" xlink:href="#Purple_Radial"/><radialGradient id="Purple_Radial-3" cx="12.55" cy="14.25" r="6.06" xlink:href="#Purple_Radial"/></defs><path class="cls-1" d="M8.18,3.28h8.66a6.24,6.24,0,0,1,6.24,6.24V21.27a6.24,6.24,0,0,1-6.24,6.24H10.46a6.24,6.24,0,0,1-6.24-6.24v-14A4,4,0,0,1,8.18,3.28Z"/><path class="cls-2" d="M23.68,12.15a11.5,11.5,0,0,1,3.6,8.35v.07A11.4,11.4,0,0,1,16,32H10.62a9.56,9.56,0,0,1-9.5-9.58V4.75A4.73,4.73,0,0,1,5.83,0h8.28a9.88,9.88,0,0,1,9.81,9.91V10a9.91,9.91,0,0,1-.24,2.18ZM7.24,4.22c-2.41,0-2.1.84-2.1,2.82V21.23c0,3.21.76,5.5,6.25,5.57l4.44.1c4,0,6.93-4.3,7-8.07v-.06a6.64,6.64,0,0,0-3.25-5.84,3.27,3.27,0,0,0,.79-2.12v-.05c.34-5.63-4-6.54-6.5-6.54Z"/><path class="cls-3" d="M23.68,12.15a11.67,11.67,0,0,1,3.84,8.35v.07A11.44,11.44,0,0,1,16.1,32H10.71a9.61,9.61,0,0,1-9.59-9.58V19.65l4.05.2v1.33c0,3.05,1.23,5.72,6.32,5.62l4,.1s5.57,0,8.22-4.71S23.68,12.15,23.68,12.15Z"/><path class="cls-4" d="M21.85,30.44A11.36,11.36,0,0,1,16.1,32H10.71a9.62,9.62,0,0,1-9.59-9.58V4.75A4.75,4.75,0,0,1,5.87,0h8.36a9.9,9.9,0,0,1,1.45.11c9.78,1.57,5.07,11.31,3.91,12.82a5.08,5.08,0,0,0,.73-2.55v-.05a6.37,6.37,0,0,0-2-4.28h0l-.13-.15h0L18,5.66h0l-.07-.07h0l-.08-.06h0l-.15-.14h0a1.55,1.55,0,0,0-.24-.19h0l-.08-.06h0a5,5,0,0,0-1.87-.74h0a5.32,5.32,0,0,0-1.2-.14H7.54c-1.72-.1-2.32.46-2.32,1v15.9a5.63,5.63,0,0,0,.38,2.58h0C8,30.9,21.79,30.44,21.85,30.44Z"/><path class="cls-5" d="M12.68,18.51A3,3,0,0,0,9.9,21.3a4.14,4.14,0,0,0,2.73.94,3.93,3.93,0,0,0,2.66-.94A2.89,2.89,0,0,0,12.68,18.51Z"/><path class="cls-6" d="M13.77,14.52a1.22,1.22,0,1,1-2.44,0,1.22,1.22,0,0,1,2.44,0Zm0,0"/><path class="cls-7" d="M7.61,19.68l1.26-.75a4.65,4.65,0,0,0,.59.49,3.28,3.28,0,0,1,3.11-2.25,2.63,2.63,0,1,1,2.63-2.63,2.63,2.63,0,0,1-2.63,2.63,3.27,3.27,0,0,1,3.1,2.25,4.65,4.65,0,0,0,.59-.49l1.22.74a.38.38,0,0,0,.54-.13l.93-1.6a.4.4,0,0,0-.14-.53l-1.22-.75a4.78,4.78,0,0,0,0-2.93L18.81,13a.39.39,0,0,0,.14-.52L18,10.86a.38.38,0,0,0-.54-.14l-1.22.74a5.26,5.26,0,0,0-2.38-1.34V9a.39.39,0,0,0-.39-.39H11.64a.4.4,0,0,0-.39.39v1.12a5.2,5.2,0,0,0-2.38,1.33l-1.26-.75a.39.39,0,0,0-.54.14l-.93,1.61a.39.39,0,0,0,.14.52l1.22.75a4.78,4.78,0,0,0,0,2.93l-1.22.75a.4.4,0,0,0-.14.53l.93,1.6A.39.39,0,0,0,7.61,19.68Zm-.34.2"/></svg>