<svg id="Layer_8" data-name="Layer 8" xmlns="http://www.w3.org/2000/svg" xmlns:xlink="http://www.w3.org/1999/xlink" viewBox="0 0 28 32"><defs><style>.cls-1{fill:#fff;}.cls-2{fill:#a154a0;}.cls-2,.cls-3,.cls-4{fill-rule:evenodd;}.cls-3{fill:#5f286e;}.cls-4{fill:#813589;}.cls-5{fill:url(#linear-gradient);}.cls-6{fill:url(#linear-gradient-2);}</style><linearGradient id="linear-gradient" x1="7.9" y1="19.98" x2="18.64" y2="19.98" gradientUnits="userSpaceOnUse"><stop offset="0" stop-color="#ff057e"/><stop offset="1" stop-color="#fadf44"/></linearGradient><linearGradient id="linear-gradient-2" x1="9.48" y1="11.66" x2="17.07" y2="11.66" xlink:href="#linear-gradient"/></defs><path class="cls-1" d="M8.09,3.28h8.66A6.24,6.24,0,0,1,23,9.52V21.27a6.24,6.24,0,0,1-6.24,6.24H10.37a6.24,6.24,0,0,1-6.24-6.24v-14a4,4,0,0,1,4-4Z"/><path class="cls-2" d="M23.59,12.15a11.5,11.5,0,0,1,3.6,8.35v.07A11.4,11.4,0,0,1,15.87,32H10.53A9.56,9.56,0,0,1,1,22.42V4.75A4.73,4.73,0,0,1,5.74,0H14a9.88,9.88,0,0,1,9.81,9.91V10a9.91,9.91,0,0,1-.24,2.18ZM7.15,4.22c-2.41,0-2.09.84-2.09,2.82V21.23c0,3.21.76,5.5,6.24,5.57l4.44.1c4,0,6.94-4.3,7-8.07v-.06a6.64,6.64,0,0,0-3.25-5.84,3.31,3.31,0,0,0,.78-2.12v-.05c.35-5.63-4-6.54-6.49-6.54Z"/><path class="cls-3" d="M23.59,12.15a11.64,11.64,0,0,1,3.85,8.35v.07A11.45,11.45,0,0,1,16,32H10.62A9.6,9.6,0,0,1,1,22.42V19.65l4,.2v1.33c0,3.05,1.23,5.72,6.32,5.62l4,.1s5.58,0,8.23-4.71S23.59,12.15,23.59,12.15Z"/><path class="cls-4" d="M21.76,30.44A11.33,11.33,0,0,1,16,32H10.62A9.61,9.61,0,0,1,1,22.42V4.75A4.75,4.75,0,0,1,5.78,0h8.36A10,10,0,0,1,15.6.11c9.77,1.57,5.07,11.31,3.91,12.82a5.17,5.17,0,0,0,.72-2.55v-.05a6.37,6.37,0,0,0-2-4.28h0L18.1,5.9h0l-.21-.22h0l-.08-.07h0l-.07-.06h0l-.15-.14h0l-.24-.19h0l-.09-.06h0a5,5,0,0,0-1.87-.74h0a5.26,5.26,0,0,0-1.2-.14H7.45c-1.72-.1-2.32.46-2.32,1v15.9a5.77,5.77,0,0,0,.38,2.58h0C8,30.9,21.7,30.44,21.76,30.44Z"/><path class="cls-5" d="M13.27,16.7A5.43,5.43,0,0,0,7.9,21.39a8.65,8.65,0,0,0,10.74,0A5.41,5.41,0,0,0,13.27,16.7Z"/><circle class="cls-6" cx="13.27" cy="11.66" r="3.79"/></svg>